# xmcd CD database file
#
# Track frame offsets:
#	150
#	10127
#	26520
#	40432
#	51814
#	68997
#	81342
#	90235
#	102140
#	117922
#	127110
#	142370
#	154820
#	169757
#	184430
#	197740
#	210497
#	222190
#	236272
#	250237
#	262405
#	278927
#	288225
#	298882
#	309852
#	329407
#
# Disc length: 4534 seconds
#
# Revision: 3
# Processed by: cddbd v1.5.1PL2 Copyright (c) Steve Scherf et al.
# Submitted via: CDex 1.51
#
DISCID=9011b41a
DTITLE=Various Artist - Take Me Home, Country Roads CD4
DYEAR=2002
DGENRE=Country
TTITLE0=Johnny Cash - Ballad Of A Teenage Queen
TTITLE1=Ronnie Milsap - It Was Almost Like A Song
TTITLE2=Conway Twitty - Fifteen Years Ago
TTITLE3=Don Gibson - Sea Of Heartbreak
TTITLE4=Charlie Rich - My Elusive Dreams
TTITLE5=Merle Haggard - Everybody's Had The Blues
TTITLE6=Roger Miller - My Uncle Used To Love Me But She Died
TTITLE7=Waylon Jennings - Crying
TTITLE8=Ray Price - I Won't Mention It Again
TTITLE9=Frank Saunders - Oh, Susanna
TTITLE10=Eddy Raven - Shine, Shine, Shine
TTITLE11=Charlie Rich - Behind Closed Doors
TTITLE12=Kenny Rogers - Crazy
TTITLE13=Willie Nelson - Sweet Memories
TTITLE14=Conway Twitty - After All The Good Is Gone
TTITLE15=Johnny Cash - Folsom Prison Blues
TTITLE16=Glen Campbell - It's All In The Game
TTITLE17=Lynn Anderson - Cry
TTITLE18=Willie Nelson - If You Can Touch Her At All
TTITLE19=Charley Pride - Night Games
TTITLE20=Lee Greenwood - Somebody's Gonna Love You
TTITLE21=Don Gibson - I Need Thee Every Hour
TTITLE22=Merle Haggard - Somedy We'll Look Back
TTITLE23=Hank Locklin - Seend Me The Pillow (That You Dream On)
TTITLE24=Kenny Rogers - She Believes In Me
TTITLE25=Billie Jo Spears - I'm So Lonesome I Could Cry
EXTD=YEAR: 2002
EXTT0=
EXTT1=
EXTT2=
EXTT3=
EXTT4=
EXTT5=
EXTT6=
EXTT7=
EXTT8=
EXTT9=
EXTT10=
EXTT11=
EXTT12=
EXTT13=
EXTT14=
EXTT15=
EXTT16=
EXTT17=
EXTT18=
EXTT19=
EXTT20=
EXTT21=
EXTT22=
EXTT23=
EXTT24=
EXTT25=
PLAYORDER=
